<svg width="1355" height="1355" viewBox="0 0 1355 1355" fill="none" xmlns="http://www.w3.org/2000/svg">
<path d="M1176.83 866.536C1206.51 787.206 1216.09 700.116 1206.99 616.056C1191.14 469.646 1116.94 336.986 1001.79 245.846C872.672 143.646 702.602 108.286 543.192 147.756C332.452 199.926 173.052 380.016 141.272 593.936C123.732 712.086 144.012 834.526 201.562 939.556C248.792 1025.76 318.202 1099.04 403.392 1148.67C495.332 1202.24 600.592 1227.97 707.532 1220.71C796.919 1214.64 879.579 1187.81 955.512 1140.23C994.845 1115.57 1030.42 1086.37 1062.24 1052.63C1062.31 1052.56 1062.39 1052.51 1062.48 1052.48C1062.57 1052.45 1062.67 1052.44 1062.76 1052.46C1062.86 1052.47 1062.94 1052.51 1063.02 1052.57C1063.09 1052.63 1063.15 1052.71 1063.19 1052.8L1121.94 1186.85C1122 1186.99 1122.02 1187.15 1121.99 1187.29C1121.96 1187.44 1121.88 1187.58 1121.76 1187.68C1046.85 1252.71 957.682 1302 861.972 1328.63C704.722 1372.38 537.182 1359.6 389.302 1290.18C176.822 1190.44 28.2719 984.056 3.86191 750.136C-6.94476 646.589 4.92857 545.906 39.4819 448.086C41.6952 441.826 44.0419 435.589 46.5219 429.376C92.6419 313.996 168.112 212.946 267.362 137.826C362.222 66.0261 468.809 22.0194 587.122 5.80606C593.715 4.89939 600.335 4.11606 606.982 3.45606C728.652 -8.60394 852.542 10.8161 963.142 63.0161C1064.21 110.709 1148.3 178.439 1215.41 266.206C1288.82 362.206 1336.19 477.696 1349.71 598.976C1362.42 713.036 1347.37 829.656 1303.15 935.636C1270.83 1013.09 1225.78 1082.34 1168 1143.4C1167.73 1143.68 1167.51 1143.65 1167.34 1143.29L932.142 629.646C932.133 629.625 932.117 629.606 932.098 629.594C932.078 629.581 932.055 629.574 932.032 629.574C932.008 629.574 931.986 629.581 931.966 629.594C931.947 629.606 931.931 629.625 931.922 629.646L769.352 982.966C769.275 983.139 769.149 983.286 768.991 983.389C768.833 983.492 768.65 983.546 768.462 983.546L639.762 983.656C639.698 983.657 639.634 983.642 639.577 983.611C639.521 983.581 639.473 983.537 639.438 983.483C639.403 983.429 639.382 983.367 639.377 983.303C639.373 983.239 639.385 983.174 639.412 983.116L911.072 389.246C911.212 388.939 911.452 388.786 911.792 388.786L952.322 388.776C952.682 388.776 952.935 388.939 953.082 389.266L1176.37 866.556C1176.54 866.916 1176.69 866.909 1176.83 866.536Z" fill="white"/>
<path d="M418.602 629.586C418.568 629.552 418.525 629.529 418.479 629.52C418.432 629.51 418.384 629.515 418.34 629.533C418.296 629.552 418.258 629.582 418.232 629.622C418.206 629.661 418.192 629.708 418.192 629.756L418.182 982.736C418.182 983.282 417.912 983.556 417.372 983.556L289.092 983.626C288.732 983.626 288.552 983.449 288.552 983.096V389.326C288.552 389.012 288.708 388.856 289.022 388.856C310.455 388.689 326.382 388.652 336.802 388.746C338.822 388.766 339.832 389.876 341.242 391.176C417.108 461.029 492.902 530.802 568.622 600.496C568.908 600.762 569.195 600.762 569.482 600.496L798.982 389.206C799.295 388.919 799.662 388.776 800.082 388.776L849.492 388.786C849.524 388.787 849.555 388.796 849.583 388.813C849.611 388.83 849.633 388.853 849.649 388.881C849.665 388.909 849.674 388.941 849.674 388.973C849.675 389.005 849.667 389.037 849.652 389.066C805.945 470.079 763.012 549.666 720.852 627.826C720.392 628.672 719.425 629.799 717.952 631.206C668.418 678.259 618.892 725.306 569.372 772.346C569.286 772.429 569.171 772.475 569.052 772.475C568.932 772.475 568.818 772.429 568.732 772.346L418.602 629.586Z" fill="white"/>
</svg>
