<svg width="836" height="505" viewBox="0 0 836 505" fill="none" xmlns="http://www.w3.org/2000/svg">
<rect x="112.698" width="590" height="369" rx="30" fill="#AF62F8"/>
<path d="M831.411 146.903L770.965 138.059C770.965 138.059 711.181 90.2679 681.639 148.39C676.206 159.073 675.752 183.681 675.752 183.681C679.636 188.082 696.596 368.607 343.961 323.585C286.098 316.188 178.944 277.859 115.771 323.977C83.751 278.066 76.9132 211.885 76.9132 211.885C62.3492 264.181 85.8168 317.283 98.2943 340.28C93.5223 346.024 89.0188 352.305 85.1144 359.681C81.2307 367.016 75.9422 378.071 73.9384 398.671C73.9384 398.671 35.2044 389.104 36.5058 424.436C36.5058 424.436 38.3456 462.971 43.1176 482.827C-13.5833 482.827 1.42621 487.692 2.81594 491.167C5.78515 498.591 165.123 504.151 379.039 504.151C592.954 504.151 766.379 497.684 766.379 489.688C757.43 480.307 806.07 483.522 673.789 480.307C671.29 476.443 667.344 472.435 660.589 468.653C660.589 468.653 634.332 437.061 657.965 434.788C657.965 434.788 670.443 436.255 681.619 418.568C681.619 418.568 692.154 411.957 697.443 420.779C697.443 420.779 696.802 431.854 686.907 434.788C686.907 434.788 679.677 456.153 698.724 470.12C698.724 470.12 719.092 463.488 722.398 425.945C722.398 425.945 729.628 397.927 703.95 389.848C702.979 389.497 702.566 389.414 701.74 389.146C705.148 382.41 731.901 328.068 727.005 285.318C727.005 285.318 766.4 301.538 755.244 253.705C755.244 253.705 733.533 214.654 754.604 203.641C754.604 203.641 795.362 211.741 819.594 179.322C819.615 179.28 844.591 152.73 831.411 146.903ZM66.8113 467.848C66.8113 467.848 56.2757 430.346 70.757 434.706C70.757 434.706 91.0846 442.041 102.261 439.85C102.261 439.85 106.31 462.579 118.271 478.922C103.996 479.398 90.4649 479.976 78.2766 480.493C76.6446 476.36 73.3187 471.815 66.8113 467.848ZM379.101 475.162C303.657 475.162 233.461 475.988 173.883 477.352C173.036 473.054 170.205 468.86 163.347 466.381C163.347 466.381 138.371 462.682 135.789 450.202C135.789 450.202 177.147 428.837 189.645 404.559C189.645 404.559 208.279 397.968 303.905 425.16C379.927 446.752 487.225 450.946 617.289 440.615C617.289 440.615 616.917 461.132 630.924 478.654C563.227 476.464 475.368 475.162 379.101 475.162Z" fill="white"/>
<path fill-rule="evenodd" clip-rule="evenodd" d="M149.761 93.5098C152.677 90.5931 157.406 90.5931 160.323 93.5098L230.031 163.218C232.948 166.135 232.948 170.863 230.031 173.78L160.323 243.489C157.406 246.405 152.677 246.405 149.761 243.489C146.844 240.572 146.844 235.844 149.761 232.927L214.188 168.499L149.761 104.072C146.844 101.156 146.844 96.4265 149.761 93.5098Z" fill="white"/>
<path fill-rule="evenodd" clip-rule="evenodd" d="M209.813 244.031C209.813 239.907 213.157 236.562 217.281 236.562H319.354C323.479 236.562 326.823 239.907 326.823 244.031C326.823 248.156 323.479 251.5 319.354 251.5H217.281C213.157 251.5 209.813 248.156 209.813 244.031Z" fill="white"/>
</svg>
